<svg xmlns="http://www.w3.org/2000/svg" width="1920" height="1367" viewBox="0 0 1920 1367" fill="none">
<path fill-rule="evenodd" clip-rule="evenodd" d="M673.089 0H1247.75C1257.56 0 1266.39 5.97483 1270.03 15.0866L1273.96 24.9134C1277.61 34.0252 1286.43 40 1296.25 40H1920V1327H1296.25C1286.43 1327 1277.61 1332.97 1273.96 1342.09L1270.03 1351.91C1266.39 1361.03 1257.56 1367 1247.75 1367H673.089C661.441 1367 651.143 1357.45 645.999 1347C640.855 1336.55 630.556 1327 618.908 1327H0V40H618.908C630.556 40 640.855 30.4506 645.999 20C651.143 9.54942 661.441 0 673.089 0Z" fill="white"/>
</svg>